<mxfile host="Electron" modified="2024-04-05T16:05:47.736Z" agent="Mozilla/5.0 (Windows NT 10.0; Win64; x64) AppleWebKit/537.36 (KHTML, like Gecko) draw.io/22.1.11 Chrome/114.0.5735.289 Electron/25.9.8 Safari/537.36" etag="x7gvSX2rgj7I-FZo0VXf" version="22.1.11" type="device">
  <diagram name="Pagina-1" id="53ZMUA2_HcYznInZ7Zs4">
    <mxGraphModel dx="2064" dy="1528" grid="1" gridSize="10" guides="1" tooltips="1" connect="1" arrows="1" fold="1" page="1" pageScale="1" pageWidth="1636" pageHeight="1580" math="0" shadow="0">
      <root>
        <mxCell id="0" />
        <mxCell id="1" parent="0" />
        <mxCell id="nWlqBODfpiO-9F62yCGN-15" style="edgeStyle=orthogonalEdgeStyle;rounded=0;orthogonalLoop=1;jettySize=auto;html=1;exitX=1;exitY=0.25;exitDx=0;exitDy=0;entryX=0.5;entryY=1;entryDx=0;entryDy=0;" parent="1" source="zvT0mG1Qky_B-948sUfp-1" target="nWlqBODfpiO-9F62yCGN-12" edge="1">
          <mxGeometry relative="1" as="geometry" />
        </mxCell>
        <mxCell id="nWlqBODfpiO-9F62yCGN-16" style="edgeStyle=orthogonalEdgeStyle;rounded=0;orthogonalLoop=1;jettySize=auto;html=1;exitX=1;exitY=0.75;exitDx=0;exitDy=0;entryX=0.5;entryY=0;entryDx=0;entryDy=0;" parent="1" source="zvT0mG1Qky_B-948sUfp-1" target="nWlqBODfpiO-9F62yCGN-13" edge="1">
          <mxGeometry relative="1" as="geometry">
            <Array as="points">
              <mxPoint x="677" y="270" />
            </Array>
          </mxGeometry>
        </mxCell>
        <mxCell id="zvT0mG1Qky_B-948sUfp-1" value="layer_1" style="rounded=0;whiteSpace=wrap;html=1;fillColor=#f5f5f5;fontColor=#333333;strokeColor=#666666;" parent="1" vertex="1">
          <mxGeometry x="377" y="210" width="120" height="80" as="geometry" />
        </mxCell>
        <mxCell id="nWlqBODfpiO-9F62yCGN-8" value="EN" style="text;html=1;strokeColor=none;fillColor=none;align=center;verticalAlign=middle;whiteSpace=wrap;rounded=0;fontSize=8;" parent="1" vertex="1">
          <mxGeometry x="433" y="280" width="8" height="10" as="geometry" />
        </mxCell>
        <mxCell id="nWlqBODfpiO-9F62yCGN-11" value="layer_0" style="rounded=0;whiteSpace=wrap;html=1;fillColor=#f5f5f5;fontColor=#333333;strokeColor=#666666;" parent="1" vertex="1">
          <mxGeometry x="617" y="130" width="120" height="80" as="geometry" />
        </mxCell>
        <mxCell id="nWlqBODfpiO-9F62yCGN-12" value="EN" style="text;html=1;strokeColor=none;fillColor=none;align=center;verticalAlign=middle;whiteSpace=wrap;rounded=0;fontSize=8;" parent="1" vertex="1">
          <mxGeometry x="673" y="200" width="8" height="10" as="geometry" />
        </mxCell>
        <mxCell id="nWlqBODfpiO-9F62yCGN-13" value="layer_0" style="rounded=0;whiteSpace=wrap;html=1;fillColor=#f5f5f5;fontColor=#333333;strokeColor=#666666;" parent="1" vertex="1">
          <mxGeometry x="617" y="290" width="120" height="80" as="geometry" />
        </mxCell>
        <mxCell id="nWlqBODfpiO-9F62yCGN-14" value="EN" style="text;html=1;strokeColor=none;fillColor=none;align=center;verticalAlign=middle;whiteSpace=wrap;rounded=0;fontSize=8;" parent="1" vertex="1">
          <mxGeometry x="673" y="290" width="8" height="10" as="geometry" />
        </mxCell>
        <mxCell id="nWlqBODfpiO-9F62yCGN-18" value="" style="endArrow=classic;html=1;rounded=0;entryX=0;entryY=0.5;entryDx=0;entryDy=0;" parent="1" target="zvT0mG1Qky_B-948sUfp-1" edge="1">
          <mxGeometry width="50" height="50" relative="1" as="geometry">
            <mxPoint x="337" y="250" as="sourcePoint" />
            <mxPoint x="457" y="270" as="targetPoint" />
          </mxGeometry>
        </mxCell>
        <mxCell id="nWlqBODfpiO-9F62yCGN-19" value="" style="endArrow=classic;html=1;rounded=0;entryX=0;entryY=0.5;entryDx=0;entryDy=0;" parent="1" target="nWlqBODfpiO-9F62yCGN-11" edge="1">
          <mxGeometry width="50" height="50" relative="1" as="geometry">
            <mxPoint x="577" y="170" as="sourcePoint" />
            <mxPoint x="637" y="160" as="targetPoint" />
          </mxGeometry>
        </mxCell>
        <mxCell id="nWlqBODfpiO-9F62yCGN-20" value="" style="endArrow=classic;html=1;rounded=0;entryX=0;entryY=0.5;entryDx=0;entryDy=0;" parent="1" target="nWlqBODfpiO-9F62yCGN-13" edge="1">
          <mxGeometry width="50" height="50" relative="1" as="geometry">
            <mxPoint x="577" y="330" as="sourcePoint" />
            <mxPoint x="607" y="290" as="targetPoint" />
          </mxGeometry>
        </mxCell>
        <mxCell id="nWlqBODfpiO-9F62yCGN-26" value="&lt;font color=&quot;#cc00cc&quot;&gt;W(1)&lt;/font&gt;" style="text;html=1;strokeColor=none;fillColor=none;align=center;verticalAlign=middle;whiteSpace=wrap;rounded=0;" parent="1" vertex="1">
          <mxGeometry x="309" y="243" width="20" height="14" as="geometry" />
        </mxCell>
        <mxCell id="nWlqBODfpiO-9F62yCGN-28" value="&lt;font color=&quot;#cc00cc&quot;&gt;W(0)&lt;/font&gt;" style="text;html=1;strokeColor=none;fillColor=none;align=center;verticalAlign=middle;whiteSpace=wrap;rounded=0;" parent="1" vertex="1">
          <mxGeometry x="551" y="163" width="20" height="14" as="geometry" />
        </mxCell>
        <mxCell id="nWlqBODfpiO-9F62yCGN-29" value="&lt;font color=&quot;#cc00cc&quot;&gt;W(0)&lt;/font&gt;" style="text;html=1;strokeColor=none;fillColor=none;align=center;verticalAlign=middle;whiteSpace=wrap;rounded=0;" parent="1" vertex="1">
          <mxGeometry x="551" y="323" width="20" height="14" as="geometry" />
        </mxCell>
        <mxCell id="nWlqBODfpiO-9F62yCGN-2" value="" style="rounded=0;whiteSpace=wrap;html=1;fillColor=#f5f5f5;fontColor=#333333;strokeColor=#666666;" parent="1" vertex="1">
          <mxGeometry x="849" y="100" width="128" height="590" as="geometry" />
        </mxCell>
        <mxCell id="nWlqBODfpiO-9F62yCGN-3" value="" style="endArrow=none;html=1;rounded=0;" parent="1" edge="1">
          <mxGeometry width="50" height="50" relative="1" as="geometry">
            <mxPoint x="849" y="121" as="sourcePoint" />
            <mxPoint x="849" y="111" as="targetPoint" />
            <Array as="points">
              <mxPoint x="859" y="116" />
            </Array>
          </mxGeometry>
        </mxCell>
        <mxCell id="nWlqBODfpiO-9F62yCGN-4" value="" style="endArrow=none;html=1;rounded=0;" parent="1" edge="1">
          <mxGeometry width="50" height="50" relative="1" as="geometry">
            <mxPoint x="839" y="116" as="sourcePoint" />
            <mxPoint x="849" y="116" as="targetPoint" />
          </mxGeometry>
        </mxCell>
        <mxCell id="nWlqBODfpiO-9F62yCGN-10" value="CK" style="text;html=1;strokeColor=none;fillColor=none;align=center;verticalAlign=middle;whiteSpace=wrap;rounded=0;fontSize=8;" parent="1" vertex="1">
          <mxGeometry x="827" y="114.41999999999996" width="10" height="4" as="geometry" />
        </mxCell>
        <mxCell id="nWlqBODfpiO-9F62yCGN-40" style="edgeStyle=orthogonalEdgeStyle;rounded=0;orthogonalLoop=1;jettySize=auto;html=1;exitX=1;exitY=0.25;exitDx=0;exitDy=0;entryX=0;entryY=0.813;entryDx=0;entryDy=0;entryPerimeter=0;" parent="1" edge="1">
          <mxGeometry relative="1" as="geometry">
            <mxPoint x="977" y="150" as="sourcePoint" />
            <mxPoint x="1049" y="150" as="targetPoint" />
          </mxGeometry>
        </mxCell>
        <mxCell id="nWlqBODfpiO-9F62yCGN-41" style="edgeStyle=orthogonalEdgeStyle;rounded=0;orthogonalLoop=1;jettySize=auto;html=1;exitX=1;exitY=0.25;exitDx=0;exitDy=0;entryX=0;entryY=0.813;entryDx=0;entryDy=0;entryPerimeter=0;" parent="1" edge="1">
          <mxGeometry relative="1" as="geometry">
            <mxPoint x="977" y="190" as="sourcePoint" />
            <mxPoint x="1049" y="190" as="targetPoint" />
          </mxGeometry>
        </mxCell>
        <mxCell id="nWlqBODfpiO-9F62yCGN-42" style="edgeStyle=orthogonalEdgeStyle;rounded=0;orthogonalLoop=1;jettySize=auto;html=1;exitX=1;exitY=0.25;exitDx=0;exitDy=0;entryX=0;entryY=0.813;entryDx=0;entryDy=0;entryPerimeter=0;" parent="1" edge="1">
          <mxGeometry relative="1" as="geometry">
            <mxPoint x="977" y="310" as="sourcePoint" />
            <mxPoint x="1049" y="310" as="targetPoint" />
          </mxGeometry>
        </mxCell>
        <mxCell id="nWlqBODfpiO-9F62yCGN-43" style="edgeStyle=orthogonalEdgeStyle;rounded=0;orthogonalLoop=1;jettySize=auto;html=1;exitX=1;exitY=0.25;exitDx=0;exitDy=0;entryX=0;entryY=0.813;entryDx=0;entryDy=0;entryPerimeter=0;" parent="1" edge="1">
          <mxGeometry relative="1" as="geometry">
            <mxPoint x="977" y="350" as="sourcePoint" />
            <mxPoint x="1049" y="350" as="targetPoint" />
          </mxGeometry>
        </mxCell>
        <mxCell id="2y5cuoziLAV4_4j0Ds0p-1" style="edgeStyle=orthogonalEdgeStyle;rounded=0;orthogonalLoop=1;jettySize=auto;html=1;exitX=1;exitY=0.25;exitDx=0;exitDy=0;entryX=0.5;entryY=1;entryDx=0;entryDy=0;" edge="1" parent="1" source="2y5cuoziLAV4_4j0Ds0p-3" target="2y5cuoziLAV4_4j0Ds0p-6">
          <mxGeometry relative="1" as="geometry" />
        </mxCell>
        <mxCell id="2y5cuoziLAV4_4j0Ds0p-2" style="edgeStyle=orthogonalEdgeStyle;rounded=0;orthogonalLoop=1;jettySize=auto;html=1;exitX=1;exitY=0.75;exitDx=0;exitDy=0;entryX=0.5;entryY=0;entryDx=0;entryDy=0;" edge="1" parent="1" source="2y5cuoziLAV4_4j0Ds0p-3" target="2y5cuoziLAV4_4j0Ds0p-7">
          <mxGeometry relative="1" as="geometry">
            <Array as="points">
              <mxPoint x="677" y="590" />
            </Array>
          </mxGeometry>
        </mxCell>
        <mxCell id="2y5cuoziLAV4_4j0Ds0p-3" value="layer_1" style="rounded=0;whiteSpace=wrap;html=1;fillColor=#f5f5f5;fontColor=#333333;strokeColor=#666666;" vertex="1" parent="1">
          <mxGeometry x="377" y="530" width="120" height="80" as="geometry" />
        </mxCell>
        <mxCell id="2y5cuoziLAV4_4j0Ds0p-4" value="EN" style="text;html=1;strokeColor=none;fillColor=none;align=center;verticalAlign=middle;whiteSpace=wrap;rounded=0;fontSize=8;" vertex="1" parent="1">
          <mxGeometry x="433" y="530" width="8" height="10" as="geometry" />
        </mxCell>
        <mxCell id="2y5cuoziLAV4_4j0Ds0p-5" value="layer_0" style="rounded=0;whiteSpace=wrap;html=1;fillColor=#f5f5f5;fontColor=#333333;strokeColor=#666666;" vertex="1" parent="1">
          <mxGeometry x="617" y="450" width="120" height="80" as="geometry" />
        </mxCell>
        <mxCell id="2y5cuoziLAV4_4j0Ds0p-6" value="EN" style="text;html=1;strokeColor=none;fillColor=none;align=center;verticalAlign=middle;whiteSpace=wrap;rounded=0;fontSize=8;" vertex="1" parent="1">
          <mxGeometry x="673" y="520" width="8" height="10" as="geometry" />
        </mxCell>
        <mxCell id="2y5cuoziLAV4_4j0Ds0p-7" value="layer_0" style="rounded=0;whiteSpace=wrap;html=1;fillColor=#f5f5f5;fontColor=#333333;strokeColor=#666666;" vertex="1" parent="1">
          <mxGeometry x="617" y="610" width="120" height="80" as="geometry" />
        </mxCell>
        <mxCell id="2y5cuoziLAV4_4j0Ds0p-8" value="EN" style="text;html=1;strokeColor=none;fillColor=none;align=center;verticalAlign=middle;whiteSpace=wrap;rounded=0;fontSize=8;" vertex="1" parent="1">
          <mxGeometry x="673" y="610" width="8" height="10" as="geometry" />
        </mxCell>
        <mxCell id="2y5cuoziLAV4_4j0Ds0p-9" value="" style="endArrow=classic;html=1;rounded=0;entryX=0;entryY=0.5;entryDx=0;entryDy=0;" edge="1" parent="1" target="2y5cuoziLAV4_4j0Ds0p-3">
          <mxGeometry width="50" height="50" relative="1" as="geometry">
            <mxPoint x="337" y="570" as="sourcePoint" />
            <mxPoint x="457" y="590" as="targetPoint" />
          </mxGeometry>
        </mxCell>
        <mxCell id="2y5cuoziLAV4_4j0Ds0p-10" value="" style="endArrow=classic;html=1;rounded=0;entryX=0;entryY=0.5;entryDx=0;entryDy=0;" edge="1" parent="1" target="2y5cuoziLAV4_4j0Ds0p-5">
          <mxGeometry width="50" height="50" relative="1" as="geometry">
            <mxPoint x="577" y="490" as="sourcePoint" />
            <mxPoint x="637" y="480" as="targetPoint" />
          </mxGeometry>
        </mxCell>
        <mxCell id="2y5cuoziLAV4_4j0Ds0p-11" value="" style="endArrow=classic;html=1;rounded=0;entryX=0;entryY=0.5;entryDx=0;entryDy=0;" edge="1" parent="1" target="2y5cuoziLAV4_4j0Ds0p-7">
          <mxGeometry width="50" height="50" relative="1" as="geometry">
            <mxPoint x="577" y="650" as="sourcePoint" />
            <mxPoint x="607" y="610" as="targetPoint" />
          </mxGeometry>
        </mxCell>
        <mxCell id="2y5cuoziLAV4_4j0Ds0p-12" value="&lt;font color=&quot;#cc00cc&quot;&gt;W(1)&lt;/font&gt;" style="text;html=1;strokeColor=none;fillColor=none;align=center;verticalAlign=middle;whiteSpace=wrap;rounded=0;" vertex="1" parent="1">
          <mxGeometry x="309" y="563" width="20" height="14" as="geometry" />
        </mxCell>
        <mxCell id="2y5cuoziLAV4_4j0Ds0p-13" value="&lt;font color=&quot;#cc00cc&quot;&gt;W(0)&lt;/font&gt;" style="text;html=1;strokeColor=none;fillColor=none;align=center;verticalAlign=middle;whiteSpace=wrap;rounded=0;" vertex="1" parent="1">
          <mxGeometry x="551" y="483" width="20" height="14" as="geometry" />
        </mxCell>
        <mxCell id="2y5cuoziLAV4_4j0Ds0p-14" value="&lt;font color=&quot;#cc00cc&quot;&gt;W(0)&lt;/font&gt;" style="text;html=1;strokeColor=none;fillColor=none;align=center;verticalAlign=middle;whiteSpace=wrap;rounded=0;" vertex="1" parent="1">
          <mxGeometry x="551" y="643" width="20" height="14" as="geometry" />
        </mxCell>
        <mxCell id="2y5cuoziLAV4_4j0Ds0p-15" style="edgeStyle=orthogonalEdgeStyle;rounded=0;orthogonalLoop=1;jettySize=auto;html=1;exitX=1;exitY=0.75;exitDx=0;exitDy=0;entryX=0;entryY=0.813;entryDx=0;entryDy=0;entryPerimeter=0;" edge="1" parent="1" source="2y5cuoziLAV4_4j0Ds0p-7">
          <mxGeometry relative="1" as="geometry">
            <mxPoint x="849" y="670" as="targetPoint" />
          </mxGeometry>
        </mxCell>
        <mxCell id="2y5cuoziLAV4_4j0Ds0p-16" style="edgeStyle=orthogonalEdgeStyle;rounded=0;orthogonalLoop=1;jettySize=auto;html=1;exitX=1;exitY=0.25;exitDx=0;exitDy=0;entryX=-0.002;entryY=0.688;entryDx=0;entryDy=0;entryPerimeter=0;" edge="1" parent="1" source="2y5cuoziLAV4_4j0Ds0p-7">
          <mxGeometry relative="1" as="geometry">
            <mxPoint x="737" y="630" as="sourcePoint" />
            <mxPoint x="849" y="630" as="targetPoint" />
          </mxGeometry>
        </mxCell>
        <mxCell id="2y5cuoziLAV4_4j0Ds0p-17" style="edgeStyle=orthogonalEdgeStyle;rounded=0;orthogonalLoop=1;jettySize=auto;html=1;exitX=1;exitY=0.25;exitDx=0;exitDy=0;entryX=-0.003;entryY=0.187;entryDx=0;entryDy=0;entryPerimeter=0;" edge="1" parent="1" source="2y5cuoziLAV4_4j0Ds0p-5">
          <mxGeometry relative="1" as="geometry">
            <mxPoint x="737" y="470" as="sourcePoint" />
            <mxPoint x="849" y="470" as="targetPoint" />
          </mxGeometry>
        </mxCell>
        <mxCell id="2y5cuoziLAV4_4j0Ds0p-18" style="edgeStyle=orthogonalEdgeStyle;rounded=0;orthogonalLoop=1;jettySize=auto;html=1;exitX=1;exitY=0.75;exitDx=0;exitDy=0;entryX=0.001;entryY=0.312;entryDx=0;entryDy=0;entryPerimeter=0;" edge="1" parent="1" source="2y5cuoziLAV4_4j0Ds0p-5">
          <mxGeometry relative="1" as="geometry">
            <mxPoint x="737" y="510" as="sourcePoint" />
            <mxPoint x="849" y="510" as="targetPoint" />
          </mxGeometry>
        </mxCell>
        <mxCell id="2y5cuoziLAV4_4j0Ds0p-20" style="edgeStyle=orthogonalEdgeStyle;rounded=0;orthogonalLoop=1;jettySize=auto;html=1;exitX=1;exitY=0.75;exitDx=0;exitDy=0;entryX=0;entryY=0.813;entryDx=0;entryDy=0;entryPerimeter=0;" edge="1" parent="1">
          <mxGeometry relative="1" as="geometry">
            <mxPoint x="849" y="349.71" as="targetPoint" />
            <mxPoint x="737" y="349.71" as="sourcePoint" />
          </mxGeometry>
        </mxCell>
        <mxCell id="2y5cuoziLAV4_4j0Ds0p-21" style="edgeStyle=orthogonalEdgeStyle;rounded=0;orthogonalLoop=1;jettySize=auto;html=1;exitX=1;exitY=0.25;exitDx=0;exitDy=0;entryX=-0.002;entryY=0.688;entryDx=0;entryDy=0;entryPerimeter=0;" edge="1" parent="1">
          <mxGeometry relative="1" as="geometry">
            <mxPoint x="737" y="309.71" as="sourcePoint" />
            <mxPoint x="849" y="309.71" as="targetPoint" />
          </mxGeometry>
        </mxCell>
        <mxCell id="2y5cuoziLAV4_4j0Ds0p-22" style="edgeStyle=orthogonalEdgeStyle;rounded=0;orthogonalLoop=1;jettySize=auto;html=1;exitX=1;exitY=0.25;exitDx=0;exitDy=0;entryX=-0.003;entryY=0.187;entryDx=0;entryDy=0;entryPerimeter=0;" edge="1" parent="1">
          <mxGeometry relative="1" as="geometry">
            <mxPoint x="737" y="149.70999999999998" as="sourcePoint" />
            <mxPoint x="849" y="149.70999999999998" as="targetPoint" />
          </mxGeometry>
        </mxCell>
        <mxCell id="2y5cuoziLAV4_4j0Ds0p-23" style="edgeStyle=orthogonalEdgeStyle;rounded=0;orthogonalLoop=1;jettySize=auto;html=1;exitX=1;exitY=0.75;exitDx=0;exitDy=0;entryX=0.001;entryY=0.312;entryDx=0;entryDy=0;entryPerimeter=0;" edge="1" parent="1">
          <mxGeometry relative="1" as="geometry">
            <mxPoint x="737" y="189.70999999999998" as="sourcePoint" />
            <mxPoint x="849" y="189.70999999999998" as="targetPoint" />
          </mxGeometry>
        </mxCell>
        <mxCell id="2y5cuoziLAV4_4j0Ds0p-29" style="edgeStyle=orthogonalEdgeStyle;rounded=0;orthogonalLoop=1;jettySize=auto;html=1;exitX=1;exitY=0.25;exitDx=0;exitDy=0;entryX=0.5;entryY=1;entryDx=0;entryDy=0;" edge="1" parent="1" source="2y5cuoziLAV4_4j0Ds0p-24" target="nWlqBODfpiO-9F62yCGN-8">
          <mxGeometry relative="1" as="geometry" />
        </mxCell>
        <mxCell id="2y5cuoziLAV4_4j0Ds0p-30" style="edgeStyle=orthogonalEdgeStyle;rounded=0;orthogonalLoop=1;jettySize=auto;html=1;exitX=1;exitY=0.75;exitDx=0;exitDy=0;entryX=0.5;entryY=0;entryDx=0;entryDy=0;" edge="1" parent="1" source="2y5cuoziLAV4_4j0Ds0p-24" target="2y5cuoziLAV4_4j0Ds0p-4">
          <mxGeometry relative="1" as="geometry" />
        </mxCell>
        <mxCell id="2y5cuoziLAV4_4j0Ds0p-24" value="layer_2" style="rounded=0;whiteSpace=wrap;html=1;fillColor=#f5f5f5;fontColor=#333333;strokeColor=#666666;" vertex="1" parent="1">
          <mxGeometry x="197" y="370" width="120" height="80" as="geometry" />
        </mxCell>
        <mxCell id="2y5cuoziLAV4_4j0Ds0p-25" value="EN" style="text;html=1;strokeColor=none;fillColor=none;align=center;verticalAlign=middle;whiteSpace=wrap;rounded=0;fontSize=8;" vertex="1" parent="1">
          <mxGeometry x="253" y="440" width="8" height="10" as="geometry" />
        </mxCell>
        <mxCell id="2y5cuoziLAV4_4j0Ds0p-26" value="" style="endArrow=classic;html=1;rounded=0;entryX=0;entryY=0.5;entryDx=0;entryDy=0;" edge="1" parent="1" target="2y5cuoziLAV4_4j0Ds0p-24">
          <mxGeometry width="50" height="50" relative="1" as="geometry">
            <mxPoint x="157" y="410" as="sourcePoint" />
            <mxPoint x="277" y="430" as="targetPoint" />
          </mxGeometry>
        </mxCell>
        <mxCell id="2y5cuoziLAV4_4j0Ds0p-27" value="&lt;font color=&quot;#cc00cc&quot;&gt;W(2)&lt;/font&gt;" style="text;html=1;strokeColor=none;fillColor=none;align=center;verticalAlign=middle;whiteSpace=wrap;rounded=0;" vertex="1" parent="1">
          <mxGeometry x="130" y="403" width="20" height="14" as="geometry" />
        </mxCell>
        <mxCell id="2y5cuoziLAV4_4j0Ds0p-31" value="" style="endArrow=classic;html=1;rounded=0;entryX=0.5;entryY=1;entryDx=0;entryDy=0;" edge="1" parent="1" target="2y5cuoziLAV4_4j0Ds0p-24">
          <mxGeometry width="50" height="50" relative="1" as="geometry">
            <mxPoint x="257" y="490" as="sourcePoint" />
            <mxPoint x="457" y="470" as="targetPoint" />
          </mxGeometry>
        </mxCell>
        <mxCell id="2y5cuoziLAV4_4j0Ds0p-32" value="&lt;font color=&quot;#cc00cc&quot;&gt;EN&lt;/font&gt;" style="text;html=1;strokeColor=none;fillColor=none;align=center;verticalAlign=middle;whiteSpace=wrap;rounded=0;" vertex="1" parent="1">
          <mxGeometry x="246" y="492" width="20" height="14" as="geometry" />
        </mxCell>
        <mxCell id="2y5cuoziLAV4_4j0Ds0p-33" style="edgeStyle=orthogonalEdgeStyle;rounded=0;orthogonalLoop=1;jettySize=auto;html=1;exitX=1;exitY=0.25;exitDx=0;exitDy=0;entryX=0;entryY=0.813;entryDx=0;entryDy=0;entryPerimeter=0;" edge="1" parent="1">
          <mxGeometry relative="1" as="geometry">
            <mxPoint x="977" y="469.77" as="sourcePoint" />
            <mxPoint x="1049" y="469.77" as="targetPoint" />
          </mxGeometry>
        </mxCell>
        <mxCell id="2y5cuoziLAV4_4j0Ds0p-34" style="edgeStyle=orthogonalEdgeStyle;rounded=0;orthogonalLoop=1;jettySize=auto;html=1;exitX=1;exitY=0.25;exitDx=0;exitDy=0;entryX=0;entryY=0.813;entryDx=0;entryDy=0;entryPerimeter=0;" edge="1" parent="1">
          <mxGeometry relative="1" as="geometry">
            <mxPoint x="977" y="509.77" as="sourcePoint" />
            <mxPoint x="1049" y="509.77" as="targetPoint" />
          </mxGeometry>
        </mxCell>
        <mxCell id="2y5cuoziLAV4_4j0Ds0p-35" style="edgeStyle=orthogonalEdgeStyle;rounded=0;orthogonalLoop=1;jettySize=auto;html=1;exitX=1;exitY=0.25;exitDx=0;exitDy=0;entryX=0;entryY=0.813;entryDx=0;entryDy=0;entryPerimeter=0;" edge="1" parent="1">
          <mxGeometry relative="1" as="geometry">
            <mxPoint x="977" y="629.77" as="sourcePoint" />
            <mxPoint x="1049" y="629.77" as="targetPoint" />
          </mxGeometry>
        </mxCell>
        <mxCell id="2y5cuoziLAV4_4j0Ds0p-36" style="edgeStyle=orthogonalEdgeStyle;rounded=0;orthogonalLoop=1;jettySize=auto;html=1;exitX=1;exitY=0.25;exitDx=0;exitDy=0;entryX=0;entryY=0.813;entryDx=0;entryDy=0;entryPerimeter=0;" edge="1" parent="1">
          <mxGeometry relative="1" as="geometry">
            <mxPoint x="977" y="669.77" as="sourcePoint" />
            <mxPoint x="1049" y="669.77" as="targetPoint" />
          </mxGeometry>
        </mxCell>
      </root>
    </mxGraphModel>
  </diagram>
</mxfile>
